# xmcd CD database file
#
# Track frame offsets:
#	185
#	9893
#	32775
#	55734
#	74563
#	98161
#	119565
#	137325
#	168835
#	187425
#	202345
#
# Disc length: 2872 seconds
#
# Revision: 1
# Processed by: cddbd v1.5.1PL0 Copyright (c) Steve Scherf et al.
# Submitted via: CDex 1.51
#
DISCID=9f0b360b
DTITLE=Hae - Island
DYEAR=1999
DGENRE=New Age
TTITLE0=Sunset Island
TTITLE1=Teinsagu Nu Hana
TTITLE2=Gentle Wind
TTITLE3=Chikinu Kaishiya
TTITLE4=After The Rain
TTITLE5=Lazy Afternoon
TTITLE6=Heavenly Home ( Akatasundunchi )
TTITLE7=By The Sea
TTITLE8=Secret Love
TTITLE9=Coming Home
TTITLE10=Teinsagu Nu Hana [Ending Version]
EXTD=YEAR: 1999
EXTT0=
EXTT1=
EXTT2=
EXTT3=
EXTT4=
EXTT5=
EXTT6=
EXTT7=
EXTT8=
EXTT9=
EXTT10=
PLAYORDER=
